PathFileType	4	(X/Y/Z)	Run_300 01
DataRate	CameraRate	NumFrames	NumMarkers	Units	OrigDataRate	OrigDataStartFrame	OrigNumFrames
120	120	8	41	mm	120	68	125
Frame#	Time	LASI			RASI			LPSI			RPSI			RTH1			RTH3			LTH1			LTH2			LTH3			RTB1			RTB2			RTB3			LTB1			LTB2			LTB3			RCAL			RTOE			RMT5			LCAL			LTOE			LMT5			LACR			RACR			CLAV			C7			RUA1			RUA2			RUA3			RLEL			RMEL			LUA1			LUA2			LUA3			LLEL			LMEL			RFAsuperior			RFAradius			RFAulna			LFAsuperior			LFAradius			LFAulna			
		X1	Y1	Z1	X2	Y2	Z2	X3	Y3	Z3	X4	Y4	Z4	X5	Y5	Z5	X6	Y6	Z6	X7	Y7	Z7	X8	Y8	Z8	X9	Y9	Z9	X10	Y10	Z10	X11	Y11	Z11	X12	Y12	Z12	X13	Y13	Z13	X14	Y14	Z14	X15	Y15	Z15	X16	Y16	Z16	X17	Y17	Z17	X18	Y18	Z18	X19	Y19	Z19	X20	Y20	Z20	X21	Y21	Z21	X22	Y22	Z22	X23	Y23	Z23	X24	Y24	Z24	X25	Y25	Z25	X26	Y26	Z26	X27	Y27	Z27	X28	Y28	Z28	X29	Y29	Z29	X30	Y30	Z30	X31	Y31	Z31	X32	Y32	Z32	X33	Y33	Z33	X34	Y34	Z34	X35	Y35	Z35	X36	Y36	Z36	X37	Y37	Z37	X38	Y38	Z38	X39	Y39	Z39	X40	Y40	Z40	X41	Y41	Z41	

68	1.058333	875.497645	982.42862	-418.268512	882.552645	971.73912	-182.991061	718.463688	1016.015485	-343.433159	715.06621	1009.448025	-246.587427	865.107766	818.562133	-120.579967	1011.194499	613.920972	-153.001784	808.267873	790.9051909999999	-466.261056	850.900344	677.540903	-439.496965	767.146171	572.907421	-406.314672	978.843609	437.884848	-222.17168	909.031852	442.061473	-153.863951	864.403198	393.134548	-220.841993	739.630037	351.557926	-312.336238	671.742199	298.116425	-381.623137	639.850253	213.014328	-305.000448	664.149631	397.647322	-215.808675	769.536728	214.144519	-231.618668	747.568524	229.53248	-138.808153	470.75139	135.648601	-304.259999	665.633642	75.565556	-265.090873	652.501587	59.926902	-354.364778	910.712325	1433.479676	-476.507622	826.2957730000001	1437.706014	-94.134317	928.511078	1422.872422	-250.511139	819.670242	1490.175949	-309.588596	722.610006	1338.854057	-54.031976	660.59658	1356.084513	-94.301708	651.964682	1285.451342	-34.780589	592.222651	1241.5914	-23.37905	572.872657	1226.303548	-101.88187	860.167601	1305.376633	-544.997127	791.988285	1261.665388	-555.204422	858.931862	1218.636368	-562.722707	817.974137	1147.954959	-598.0876459999999	757.996641	1141.857693	-533.911028	641.756742	1122.825475	-13.586914	684.168216	1014.159915	-55.393636	628.5526170000001	998.3699329999999	-15.688507	926.45448	1112.527704	-534.149979	987.714728	1128.212113	-425.018636	1005.639292	1073.04384	-463.96249	
69	1.066667	878.313815	986.344817	-417.994385	885.054209	979.048123	-183.58445	721.449781	1021.71814	-343.670029	717.3046399999999	1016.752441	-247.172257	868.4471119999999	827.834748	-119.453446	1015.741219	622.9911070000001	-154.921178	807.582445	795.228429	-465.094373	843.344908	681.146137	-436.783979	752.976964	580.417107	-405.584275	991.111237	441.925988	-223.316472	921.412879	440.78046	-155.628959	879.91505	388.612732	-220.763731	719.191115	358.473158	-313.199981	649.56026	306.418522	-382.183155	618.396596	220.22653	-306.451174	680.037284	378.427167	-217.195137	799.0817060000001	204.658496	-234.012062	776.998	217.818096	-140.149037	450.251338	144.684405	-306.613094	641.787705	76.293396	-265.550784	628.3171	60.19694	-354.544593	912.796016	1441.533388	-474.344336	821.788057	1445.656632	-94.63258500000001	926.451354	1430.575569	-248.398302	818.549622	1497.128596	-309.329922	716.880302	1348.635975	-55.367848	655.81062	1366.793597	-96.609011	645.604257	1295.625231	-37.304664	585.03203	1252.492955	-27.013095	566.889246	1237.837536	-106.022845	865.068883	1313.172432	-544.027473	797.71317	1269.067553	-556.491349	865.042204	1226.572928	-561.74952	825.451421	1155.488179	-597.987584	763.576642	1149.153444	-535.1165099999999	634.598715	1134.263086	-16.473541	678.076861	1025.566594	-57.72045	621.8371509999999	1009.394348	-19.122256	932.5588279999999	1123.059416	-530.542019	990.242776	1140.860406	-419.823013	1010.758461	1086.151649	-458.070993	
70	1.075	881.580454	990.547238	-417.498914	887.786754	986.771215	-183.615476	724.838694	1027.835338	-343.877814	719.961631	1024.498267	-247.593349	872.667583	836.8401679999999	-118.68231	1019.389226	631.405411	-156.78329	806.938278	800.0279389999999	-463.973919	835.76566	685.773914	-434.283368	739.697107	589.092272	-405.372649	1002.734466	445.38074	-224.532839	933.6251140000001	438.819109	-157.344399	895.709488	383.792278	-221.370579	699.567434	366.984263	-314.607745	628.501356	316.270436	-383.321629	598.278385	229.005017	-308.2363	697.1729759999999	358.619964	-218.378843	829.759878	195.449281	-236.567311	807.114256	206.301703	-142.100219	431.42783	155.241503	-308.995841	618.540737	76.75534	-266.005159	604.64085	60.37658	-354.71392	914.855505	1449.789461	-472.155753	817.754533	1453.533968	-95.109752	924.539147	1438.415949	-246.324603	817.435832	1504.219431	-309.016482	711.631025	1358.469345	-56.77638	651.545517	1377.429162	-99.115334	639.761757	1305.788376	-39.911926	578.429089	1263.283146	-30.747201	561.584995	1249.019895	-110.231675	869.753325	1321.387565	-543.124375	803.049429	1277.148202	-557.548239	870.657852	1235.028253	-560.974075	832.317595	1163.581641	-597.8896999999999	768.904537	1156.876939	-536.382535	628.09434	1145.501658	-19.418875	672.834836	1036.931177	-60.075532	616.017484	1020.273799	-22.618462	937.884246	1133.793207	-527.214576	991.921024	1153.206043	-414.9043	1014.950051	1099.124287	-452.493285	
71	1.083333	885.311105	995.0485210000001	-416.723103	890.693369	994.806386	-183.137208	728.662942	1034.311677	-344.206421	722.965859	1032.636381	-247.898716	877.555915	845.583578	-118.246606	1022.124555	639.056389	-158.531305	805.909509	805.455205	-462.898065	828.441287	691.371907	-432.083948	727.34729	598.769531	-405.729539	1013.803492	448.124662	-225.597458	945.670082	436.364266	-158.883496	911.744826	378.735576	-222.621568	680.947799	376.786148	-316.587873	608.851262	327.38514	-385.083248	580.015179	238.895818	-310.431425	715.532406	338.357722	-219.438598	861.299096	186.788898	-239.33894	837.966299	195.156603	-144.603598	414.605115	167.02497	-311.39293	595.934681	76.893658	-266.531161	581.455721	60.407413	-354.921753	916.825837	1458.11754	-469.934202	814.1909010000001	1461.171317	-95.517442	922.866171	1446.179789	-244.320803	816.371248	1511.230768	-308.62713	706.889626	1368.072488	-58.256867	647.820032	1387.713085	-101.765098	634.422823	1315.796565	-42.572192	572.41659	1273.805302	-34.515069	556.8875389999999	1259.697026	-114.414918	874.21557	1329.863338	-542.290667	808.043773	1285.692261	-558.4296399999999	875.850112	1243.803264	-560.372471	838.631079	1172.004531	-597.791723	773.93801	1164.863782	-537.789406	622.269334	1156.384244	-22.408933	668.444237	1048.15011	-62.291827	611.0309999999999	1030.84539	-26.163064	942.547415	1144.522665	-524.145289	992.92237	1165.122643	-410.294049	1018.357442	1111.741531	-447.153488	
72	1.091667	889.428105	999.77988	-415.467801	893.699268	1002.990971	-182.296467	732.882915	1041.07221	-344.669818	726.192527	1041.02749	-248.153644	882.211715	854.191569	-117.866793	1023.965754	645.866674	-160.159551	804.514557	811.559564	-461.925581	821.621087	697.6959440000001	-430.274395	715.930021	609.274268	-406.574069	1024.353066	450.169589	-226.446873	957.493149	433.480806	-160.246453	927.926245	373.398143	-224.112011	663.571505	387.529388	-319.106718	590.735866	339.45949	-387.462713	563.825571	249.373186	-313.28943	735.113743	317.758416	-220.508065	893.244689	179.031064	-242.498485	869.507944	184.572716	-147.561837	400.017532	179.742413	-313.925808	573.980908	76.94933899999999	-267.288912	558.6904500000001	60.388617	-355.331336	918.64685	1466.42114	-467.740107	811.047135	1468.473151	-95.86819199999999	921.452938	1453.693252	-242.467728	815.410834	1517.959453	-308.172807	702.651644	1377.206397	-59.796603	644.646424	1397.426128	-104.506783	629.558841	1325.520794	-45.271293	566.985991	1283.919376	-38.272688	552.765522	1269.799276	-118.523092	878.438813	1338.43048	-541.514168	812.757652	1294.468588	-559.219415	880.68442	1252.690756	-559.906554	844.453527	1180.544374	-597.736363	778.483439	1173.058612	-539.322928	617.150438	1166.81723	-25.443017	664.85514	1059.071525	-64.344684	606.819868	1040.968779	-29.73828	946.6515470000001	1155.060386	-521.322664	993.418179	1176.521452	-406.037402	1021.121594	1123.863059	-442.108973	
73	1.1	893.788193	1004.614337	-413.708036	896.713093	1011.103156	-181.249824	737.374308	1048.020893	-345.169918	729.5231690000001	1049.441092	-248.405827	885.673435	862.7246709999999	-117.201459	1024.961871	651.782705	-161.718765	803.101163	818.220446	-461.186989	815.446119	704.4209980000001	-428.970518	705.478794	620.374368	-407.717619	1034.322112	451.633622	-227.252155	969.029308	430.108916	-161.518429	944.1764879999999	367.749398	-225.506166	647.700502	398.892055	-322.037709	574.127982	352.220036	-390.375358	549.5738689999999	260.025528	-317.075569	755.95152	296.978168	-221.680544	925.268129	172.38192	-246.037572	901.584666	174.725457	-150.857635	387.734664	193.17835	-316.81842	552.768297	77.468771	-268.469584	536.357445	60.649411	-356.167955	920.270897	1474.584372	-465.657769	808.26105	1475.385431	-96.205376	920.2614160000001	1460.837854	-240.834644	814.6018299999999	1524.264708	-307.685681	698.87826	1385.710388	-61.355705	642.011062	1406.414696	-107.298874	625.145574	1334.841098	-47.948229	562.123019	1293.497662	-41.974908	549.2058500000001	1279.267626	-122.513926	882.3992459999999	1346.918639	-540.782147	817.22919	1303.248217	-559.98796	885.2079210000001	1261.47308	-559.535872	849.824757	1189.001352	-597.7747859999999	782.39352	1181.406806	-540.877593	612.733087	1176.728044	-28.493619	661.957255	1069.484702	-66.34333599999999	603.334193	1050.539028	-33.271275	950.267588	1165.236526	-518.731233	993.539055	1187.342141	-402.156309	1023.350388	1135.397691	-437.43717	
74	1.108333	898.218371	1009.420358	-411.735624	899.648013	1018.887374	-180.09198	741.9546	1055.036406	-345.573513	732.867104	1057.62515	-248.649964	887.638497	871.0600030000001	-116.151983	1025.145726	656.751411	-163.292067	802.074947	825.17921	-460.831029	809.9590020000001	711.230309	-428.285724	696.0760739999999	631.731911	-408.921419	1043.602704	452.656085	-228.255533	980.257105	426.168322	-162.754445	960.424974	361.884984	-226.773511	633.516894	410.56537	-325.16033	558.926646	365.378239	-393.631221	536.921777	270.626967	-321.781385	778.063927	276.260667	-222.947575	957.208882	166.872463	-249.729547	933.9698969999999	165.772926	-154.369697	377.623076	207.210692	-320.316274	532.4877750000001	79.128242	-270.188783	514.6465920000001	61.701189	-357.575639	921.673252	1482.438681	-463.718266	805.786268	1481.864369	-96.568427	919.238365	1467.53246	-239.426772	813.965617	1530.097127	-307.198419	695.516983	1393.505655	-62.877386	639.864417	1414.588985	-110.102088	621.17453	1343.631702	-50.506424	557.8163510000001	1302.418402	-45.558382	546.194035	1288.012891	-126.33441	886.067533	1355.168982	-540.087069	821.454474	1311.81468	-560.75581	889.444597	1269.941276	-559.230639	854.749852	1197.189591	-597.937925	785.728531	1189.742066	-542.353585	608.9842630000001	1186.023841	-31.489065	659.633888	1079.168386	-68.408968	600.534846	1059.479971	-36.633048	953.425524	1174.899685	-516.337791	993.355953	1197.539401	-398.631071	1025.102023	1146.266827	-433.146096	
75	1.116667	902.540564	1014.087801	-409.984302	902.4370269999999	1026.08774	-178.841928	746.439476	1061.975124	-345.803917	736.1437110000001	1065.371358	-248.828377	888.638899	878.876742	-114.983138	1024.491009	660.7082370000001	-164.921981	801.645901	832.123484	-460.928131	805.142467	717.86261	-428.272096	687.828232	642.908856	-409.964423	1052.120464	453.311398	-229.534042	991.2107	421.665691	-163.926681	976.563325	356.022255	-228.081719	621.059761	422.19174	-328.20152	545.111822	378.550247	-396.955073	525.533014	281.084017	-326.967293	801.373683	255.941058	-224.226093	988.934753	162.497658	-253.328638	966.4114060000001	157.882304	-157.992652	369.366988	221.752301	-324.567704	513.311896	82.441185	-272.407584	493.839941	64.046679	-359.475903	922.864346	1489.791467	-461.882846	803.60249	1487.852086	-96.972064	918.355353	1473.702162	-238.188648	813.490781	1535.470934	-306.731468	692.528922	1400.571781	-64.311121	638.130462	1421.907289	-112.868988	617.649478	1351.751394	-52.876647	554.0620259999999	1310.560621	-48.944961	543.711472	1295.919817	-129.928753	889.413742	1363.036677	-539.421607	825.392877	1319.970435	-561.48073	893.3944310000001	1277.922321	-558.983265	859.2060719999999	1204.945084	-598.223124	788.695514	1197.787077	-543.719235	605.867786	1194.576447	-34.328235	657.823843	1087.956739	-70.549695	598.397868	1067.713064	-39.686053	956.121619	1183.919158	-514.096819	992.9000150000001	1207.065968	-395.41576	1026.39106	1156.383796	-429.184025	
